<?xml version="1.0" encoding="UTF-8"?>
<svg id="Layer_1" data-name="Layer 1" xmlns="http://www.w3.org/2000/svg" viewBox="0 0 1500 427.97">
  <defs>
    <style>
      .cls-1 {
        fill: #f47e44;
      }

      .cls-2 {
        fill: #fff;
      }
    </style>
  </defs>
  <rect class="cls-1" width="1500" height="427.97"/>
  <g>
    <g>
      <path class="cls-2" d="m634.5,173.72c-5.81-6.08-11.9-10.93-18.27-14.53-6.37-3.6-12.87-5.4-19.52-5.4-9.14,0-17.31,1.66-24.5,4.98-7.2,3.32-13.36,7.75-18.48,13.29-5.13,5.54-9,11.9-11.63,19.1-2.63,7.2-3.95,14.68-3.95,22.42s1.31,15.23,3.95,22.42c2.63,7.2,6.5,13.57,11.63,19.1,5.12,5.54,11.28,9.97,18.48,13.29,7.19,3.32,15.36,4.98,24.5,4.98,7.75,0,14.95-1.59,21.59-4.78,6.65-3.18,12.31-7.82,17.03-13.91l33.22,35.71c-4.99,4.98-10.73,9.28-17.24,12.87-6.5,3.6-13.08,6.51-19.72,8.72s-13.02,3.8-19.1,4.78c-6.09.97-11.35,1.45-15.78,1.45-14.95,0-29.07-2.49-42.35-7.47-13.29-4.98-24.78-12.04-34.47-21.18-9.69-9.14-17.38-20.14-23.05-33.01-5.68-12.87-8.51-27.2-8.51-42.98s2.83-30.11,8.51-42.98c5.67-12.87,13.35-23.88,23.05-33.01,9.69-9.13,21.18-16.19,34.47-21.18,13.29-4.98,27.41-7.47,42.35-7.47,12.73,0,25.54,2.42,38.41,7.27,12.87,4.85,24.15,12.53,33.84,23.05l-34.47,34.47Z"/>
      <path class="cls-2" d="m674.77,213.58c0-15.78,2.83-30.11,8.51-42.98,5.67-12.87,13.35-23.88,23.04-33.01,9.69-9.13,21.18-16.19,34.47-21.18,13.29-4.98,27.41-7.47,42.36-7.47s29.07,2.49,42.36,7.47c13.29,4.98,24.77,12.04,34.46,21.18,9.69,9.14,17.37,20.14,23.05,33.01,5.67,12.87,8.52,27.2,8.52,42.98s-2.85,30.11-8.52,42.98c-5.68,12.87-13.36,23.88-23.05,33.01-9.69,9.13-21.17,16.19-34.46,21.18-13.29,4.98-27.41,7.47-42.36,7.47s-29.07-2.49-42.36-7.47c-13.29-4.98-24.78-12.04-34.47-21.18-9.69-9.14-17.37-20.14-23.04-33.01-5.68-12.87-8.51-27.2-8.51-42.98Zm49.83,0c0,7.75,1.31,15.23,3.95,22.42,2.62,7.2,6.5,13.57,11.63,19.1,5.11,5.54,11.27,9.97,18.48,13.29,7.2,3.32,15.36,4.98,24.5,4.98s17.3-1.66,24.5-4.98,13.36-7.75,18.48-13.29c5.12-5.53,9-11.9,11.63-19.1,2.63-7.2,3.95-14.67,3.95-22.42s-1.32-15.22-3.95-22.42c-2.63-7.2-6.5-13.56-11.63-19.1-5.12-5.53-11.28-9.97-18.48-13.29s-15.36-4.98-24.5-4.98-17.31,1.66-24.5,4.98c-7.2,3.32-13.36,7.75-18.48,13.29-5.13,5.54-9,11.9-11.63,19.1-2.64,7.2-3.95,14.68-3.95,22.42Z"/>
      <path class="cls-2" d="m1018.6,113.92h47.34v31.97h.83c4.7-9.97,11.9-18.61,21.59-25.95,9.69-7.33,22.84-11,39.45-11,13.29,0,24.56,2.22,33.84,6.64,9.27,4.43,16.82,10.25,22.63,17.44,5.81,7.2,9.97,15.51,12.46,24.92,2.49,9.41,3.74,19.24,3.74,29.48v125.82h-49.83v-100.91c0-5.53-.28-11.69-.83-18.48-.56-6.78-2.01-13.15-4.36-19.1-2.35-5.95-6.02-10.93-11-14.95-4.98-4.01-11.77-6.02-20.35-6.02s-15.3,1.39-20.97,4.15c-5.68,2.77-10.38,6.51-14.12,11.21-3.74,4.71-6.43,10.11-8.1,16.19-1.66,6.09-2.49,12.46-2.49,19.1v108.8h-49.83V113.92Z"/>
      <path class="cls-2" d="m1349.55,169.15c-9.7-13.56-22.7-20.35-39.03-20.35-6.65,0-13.15,1.66-19.52,4.98-6.37,3.32-9.55,8.72-9.55,16.19,0,6.09,2.63,10.52,7.89,13.29,5.26,2.77,11.9,5.12,19.93,7.06,8.03,1.94,16.68,3.94,25.95,6.02,9.27,2.08,17.92,5.26,25.95,9.55,8.03,4.3,14.67,10.17,19.93,17.65,5.26,7.48,7.89,17.72,7.89,30.73,0,11.91-2.56,21.94-7.68,30.11-5.13,8.17-11.77,14.74-19.93,19.73-8.17,4.98-17.38,8.58-27.61,10.8-10.25,2.21-20.49,3.32-30.73,3.32-15.51,0-29.76-2.22-42.77-6.64-13.01-4.43-24.64-12.46-34.88-24.09l33.22-31.14c6.36,7.2,13.22,13.08,20.55,17.65,7.33,4.57,16.26,6.85,26.79,6.85,3.6,0,7.33-.42,11.21-1.25,3.87-.83,7.47-2.21,10.8-4.15,3.32-1.93,6.02-4.36,8.1-7.27,2.07-2.91,3.11-6.29,3.11-10.18,0-6.92-2.63-12.04-7.89-15.36-5.26-3.32-11.91-6.02-19.93-8.1-8.04-2.08-16.68-4.01-25.95-5.81-9.28-1.8-17.93-4.7-25.95-8.72-8.04-4.01-14.68-9.62-19.93-16.82-5.26-7.19-7.89-17.16-7.89-29.9,0-11.07,2.28-20.69,6.85-28.86,4.57-8.16,10.59-14.88,18.06-20.14,7.48-5.26,16.05-9.14,25.75-11.63,9.69-2.49,19.52-3.74,29.48-3.74,13.29,0,26.43,2.28,39.45,6.85,13.01,4.57,23.53,12.39,31.56,23.46l-33.22,29.9Z"/>
      <path class="cls-2" d="m953.71,175.76c-11.08,5.46-21.3,7.8-28.54,8.8v128.68h49.83v-152.02c-7.26,6.58-14.65,11.26-21.29,14.53Z"/>
    </g>
    <path class="cls-2" d="m111.6,306.09c4.29,4.94,31.41,15.23,126.57,12.47,95.18-2.77,158.01-7.41,199.14-5.08,41.12,2.31,28.64-9.25,27.25-10.16,0,0-12.47-9.71-27.25-21.27-14.78-11.54-17.56-10.61-17.56-26.33s-3.24-57.29-30.96-83.62c-13.81-14.69-11.36-13.39-11.54-17.09-.3-5.86-26.69-59.59-140.46-32.34-75.9,18.19-86.86,62.37-88.25,65.61-1.39,3.23-26.79,22.64-21.24,99.8,0,0-19.99,13.07-15.7,18.02"/>
  </g>
  <path class="cls-2" d="m925.17,155.36s13.59,0,30.54-12.71c16.95-12.71,21.19-28.73,21.19-28.73h-51.73v41.44Z"/>
</svg>