<svg width="50" height="50" viewBox="0 0 50 50" fill="none" xmlns="http://www.w3.org/2000/svg">
<path d="M34.3688 15.3428V15.2942C34.3688 14.0163 34.1171 12.7509 33.6281 11.5705C33.1391 10.3901 32.4223 9.31791 31.519 8.41525C30.6156 7.51258 29.5433 6.7972 28.3634 6.31006C27.1835 5.82292 25.9193 5.57358 24.6431 5.57632V11.0183C25.1911 11.0081 25.7353 11.1121 26.241 11.3238C26.7279 11.5248 27.1707 11.8196 27.5442 12.1914C27.9165 12.5632 28.212 13.0048 28.4135 13.4911C28.6151 13.9774 28.7189 14.4987 28.7189 15.0252C28.7189 15.5517 28.6151 16.0731 28.4135 16.5593C28.212 17.0456 27.9165 17.4873 27.5442 17.859C26.7896 18.6098 25.7692 19.0315 24.7055 19.0321H24.6396V44.427H34.1678C34.3584 44.427 34.5525 44.4444 34.7466 44.4444C34.9407 44.4444 35.1348 44.4444 35.3254 44.427C37.7896 44.2837 40.1059 43.2032 41.801 41.4066C43.496 39.6099 44.4416 37.2328 44.4446 34.7612V15.3428H34.3688Z" fill="url(#paint0_linear)"/>
<path d="M20.7612 15.0131C20.7624 13.9627 21.1771 12.9551 21.9153 12.2088C22.6582 11.4612 23.6628 11.0329 24.7159 11.0149V5.55554C22.1389 5.55402 19.6663 6.57483 17.8393 8.39455C16.932 9.29462 16.2123 10.3662 15.7221 11.5471C15.2318 12.7279 14.9807 13.9946 14.9833 15.2734H5.55566V34.7092C5.55673 37.1802 6.50454 39.5567 8.20371 41.3486C9.91319 43.1388 12.2366 44.214 14.706 44.3577C14.9001 44.3577 15.0942 44.3577 15.2883 44.3577C15.4824 44.3577 15.6765 44.3577 15.8706 44.3577H24.7159V19.0218C23.6613 19.0013 22.6563 18.5692 21.9153 17.8174C21.1774 17.071 20.7627 16.0635 20.7612 15.0131Z" fill="#F47E42"/>
<defs>
<linearGradient id="paint0_linear" x1="16.8272" y1="32.6024" x2="57.8654" y2="10.5644" gradientUnits="userSpaceOnUse">
<stop stop-color="#F4854C" stop-opacity="0"/>
<stop offset="0.02" stop-color="#F4844B" stop-opacity="0.1"/>
<stop offset="0.1" stop-color="#F48248" stop-opacity="0.37"/>
<stop offset="0.17" stop-color="#F48146" stop-opacity="0.59"/>
<stop offset="0.23" stop-color="#F48044" stop-opacity="0.77"/>
<stop offset="0.29" stop-color="#F47F43" stop-opacity="0.9"/>
<stop offset="0.34" stop-color="#F47E42" stop-opacity="0.97"/>
<stop offset="0.37" stop-color="#F47E42"/>
</linearGradient>
</defs>
</svg>
