<svg width="50" height="50" viewBox="0 0 50 50" fill="none" xmlns="http://www.w3.org/2000/svg">
<path d="M15.2917 44.4444C15.4865 44.4444 15.6778 44.4444 15.8691 44.427H14.7108C14.9021 44.427 15.0969 44.4444 15.2917 44.4444Z" fill="#F47E42"/>
<path d="M15.2638 25.0365C12.6896 25.0383 10.2213 26.0613 8.40107 27.8808C6.58081 29.7002 5.55738 32.1674 5.55554 34.7405V44.427H15.8447C18.3647 44.2761 20.7267 43.1499 22.4299 41.2873C24.1331 39.4247 25.0434 36.9722 24.9678 34.45C24.8923 31.9278 23.8368 29.5342 22.0252 27.7768C20.2136 26.0194 17.7883 25.0365 15.2638 25.0365Z" fill="#F47E42"/>
<path d="M25.0452 34.7231C25.0452 37.2967 26.068 39.7649 27.8887 41.5848C29.7093 43.4046 32.1787 44.427 34.7535 44.427H44.4444V34.1424C44.2933 31.6236 43.1666 29.2626 41.3032 27.5602C39.4398 25.8578 36.9862 24.9479 34.4629 25.0234C31.9395 25.0989 29.5448 26.154 27.7867 27.9648C26.0285 29.7756 25.0452 32.1997 25.0452 34.7231Z" fill="url(#paint0_linear)"/>
<path d="M34.7326 24.9565C36.009 24.9584 37.2733 24.7083 38.4529 24.2207C39.6325 23.733 40.7041 23.0174 41.6064 22.1149C42.5087 21.2124 43.2238 20.1407 43.7108 18.9613C44.1978 17.7819 44.4471 16.518 44.4444 15.2421V5.55554H34.1552C31.5813 5.63208 29.1432 6.72749 27.3774 8.60081C25.6115 10.4741 24.6625 12.9719 24.739 15.5446C24.8156 18.1173 25.9115 20.5543 27.7857 22.3194C29.6598 24.0844 32.1587 25.0331 34.7326 24.9565Z" fill="#F47E42"/>
<path d="M24.9652 15.2595C24.9652 13.9843 24.7137 12.7216 24.2252 11.5436C23.7367 10.3655 23.0206 9.29532 22.118 8.39408C21.2154 7.49285 20.1439 6.77828 18.9649 6.29122C17.7858 5.80417 16.5222 5.55418 15.2465 5.55555H5.55554V15.8402C5.63257 18.4129 6.72892 20.8497 8.6034 22.6144C9.53154 23.4882 10.6228 24.1707 11.8148 24.623C13.0069 25.0753 14.2764 25.2885 15.5508 25.2503C16.8253 25.2122 18.0797 24.9235 19.2426 24.4008C20.4054 23.8781 21.4539 23.1316 22.3281 22.2038C23.2023 21.2761 23.8851 20.1853 24.3376 18.9938C24.7901 17.8023 25.0033 16.5334 24.9652 15.2595Z" fill="#F47E42"/>
<defs>
<linearGradient id="paint0_linear" x1="28.054" y1="27.6407" x2="52.5654" y2="53.5891" gradientUnits="userSpaceOnUse">
<stop stop-color="#F4854C" stop-opacity="0"/>
<stop offset="0.02" stop-color="#F4844B" stop-opacity="0.1"/>
<stop offset="0.08" stop-color="#F48248" stop-opacity="0.37"/>
<stop offset="0.14" stop-color="#F48146" stop-opacity="0.59"/>
<stop offset="0.19" stop-color="#F48044" stop-opacity="0.77"/>
<stop offset="0.23" stop-color="#F47F43" stop-opacity="0.9"/>
<stop offset="0.27" stop-color="#F47E42" stop-opacity="0.97"/>
<stop offset="0.3" stop-color="#F47E42"/>
</linearGradient>
</defs>
</svg>
