<?xml version="1.0" encoding="utf-8"?>
<!-- Generator: Adobe Illustrator 19.2.1, SVG Export Plug-In . SVG Version: 6.00 Build 0)  -->
<svg version="1.1" id="Layer_1" xmlns="http://www.w3.org/2000/svg" xmlns:xlink="http://www.w3.org/1999/xlink" x="0px" y="0px"
	 viewBox="0 0 116 34" style="enable-background:new 0 0 116 34;" xml:space="preserve">
<style type="text/css">
	.st0{fill:#F18240;}
	.st1{fill:#FFFFFF;}
</style>
<rect class="st0" width="116" height="34"/>
<g>
	<path class="st1" d="M53.7,12.6c-0.1,0-0.4-0.1-0.6-0.2c-0.9-0.5-2.3-0.8-3.4-0.8c-3.1,0-4.7,1.8-4.7,5.5c0,3.6,1.5,5.4,4.5,5.4
		c1.3,0,2.7-0.4,3.7-0.9c0.2-0.1,0.4-0.2,0.5-0.2c0.2,0,0.3,0.2,0.3,0.5v1.6c0,0.5-0.1,0.7-0.5,0.8c-1.3,0.6-3,0.9-4.5,0.9
		c-4.8,0-7.7-2.9-7.7-7.9c0-4.9,3.1-8.2,7.8-8.2c1.2,0,2.4,0.2,3.4,0.5C53.8,9.8,54,10,54,10.5v1.7C54,12.4,53.9,12.6,53.7,12.6"/>
	<path class="st1" d="M58,10.6C59.4,9.4,60.9,9,63.4,9c4.8,0,7.4,3,7.4,8.2c0,2.9-0.8,5-2.4,6.4c-1.3,1.2-2.8,1.7-5.2,1.7
		c-2.4,0-3.8-0.5-5.2-1.7c-1.6-1.4-2.4-3.5-2.4-6.5C55.6,14.2,56.4,12,58,10.6 M63.2,22.7c2.4,0,3.9-2.1,3.9-5.5
		c0-3.5-1.5-5.6-3.9-5.6c-2.5,0-3.9,2.1-3.9,5.5C59.3,20.6,60.8,22.7,63.2,22.7z"/>
	<path class="st1" d="M84.8,9.8c0.4-0.2,0.7-0.3,0.9-0.4C86.6,9.1,87.4,9,88.4,9c3.6,0,5.5,2,5.5,5.6v9.8c0,0.2-0.2,0.4-0.4,0.4
		h-2.9c-0.2,0-0.4-0.2-0.4-0.4v-9.3c0-2.3-0.9-3.3-3.1-3.3c-2,0-3.1,0.9-3.1,2.5v10.1c0,0.2-0.2,0.4-0.4,0.4h-2.9
		c-0.2,0-0.4-0.2-0.4-0.4V9.7c0-0.2,0.2-0.4,0.4-0.4h2.5c0.4,0,0.5,0.1,0.5,0.4V10C84.1,10,84.2,10,84.8,9.8"/>
	<path class="st1" d="M104,16.2c1.8,1.1,2.7,2.5,2.7,4.3c0,2.9-2.2,4.6-5.8,4.6c-1,0-2.1-0.1-3-0.4c-0.3-0.1-0.7-0.2-1.1-0.3
		c-0.7-0.2-0.7-0.3-0.7-0.9v-1.7c0-0.4,0.1-0.6,0.3-0.6c0.2,0,0.4,0.1,0.6,0.2c1.4,0.7,2.4,1.1,3.8,1.1c1.4,0,2.1-0.5,2.1-1.5
		c0-0.8-0.3-1.2-1.7-2L99.8,18c-1.5-0.9-2.1-1.4-2.6-2.1c-0.5-0.6-0.7-1.5-0.7-2.4c0-2.7,2-4.5,5.2-4.5c1,0,2.1,0.2,3.2,0.4
		c1.4,0.3,1.6,0.5,1.6,1.1v1.6c0,0.3-0.2,0.5-0.4,0.5c-0.1,0-0.3-0.1-0.6-0.2c-0.8-0.4-2.4-0.8-3.4-0.8c-1.2,0-1.9,0.5-1.9,1.3
		c0,0.5,0.3,1,0.7,1.3l0.7,0.4l0.7,0.5L104,16.2"/>
	<path class="st1" d="M77.2,9.6c0-0.2-0.2-0.4-0.4-0.4h-2.9c-0.2,0-0.4,0.2-0.4,0.4v3.1C76.1,11.5,77.2,10.1,77.2,9.6"/>
	<g>
		<path class="st1" d="M73.5,13.9v10.5c0,0.2,0.2,0.4,0.4,0.4h2.9c0.2,0,0.4-0.2,0.4-0.4V12.1C75.4,13.5,73.6,13.9,73.5,13.9"/>
	</g>
	<path class="st1" d="M9.3,24c0.3,0.4,2.5,1.2,10.2,1c7.6-0.2,12.7-0.6,16-0.4c3.3,0.2,2.3-0.7,2.2-0.8c0,0-1-0.8-2.2-1.7
		C34.3,21.2,34,21.2,34,20c0-1.3-0.3-4.6-2.5-6.7c-1.1-1.2-0.9-1.1-0.9-1.4c0-0.5-2.1-4.8-11.3-2.6c-6.1,1.5-7,5-7.1,5.3
		c-0.1,0.3-2.1,1.8-1.7,8C10.6,22.6,9,23.6,9.3,24z"/>
</g>
</svg>
