<svg width="50" height="50" viewBox="0 0 50 50" fill="none" xmlns="http://www.w3.org/2000/svg">
<path d="M19.0357 17.5316C16.3696 17.5316 13.7633 18.3197 11.5465 19.7963C9.32972 21.2729 7.60194 23.3716 6.58166 25.827C5.56138 28.2825 5.29443 30.9844 5.81456 33.5911C6.3347 36.1978 7.61856 38.5921 9.50379 40.4715C11.389 42.3508 13.7909 43.6306 16.4058 44.1491C19.0207 44.6676 21.7311 44.4015 24.1943 43.3844C26.6575 42.3673 28.7628 40.645 30.244 38.4351C31.7252 36.2253 32.5158 33.6272 32.5158 30.9695C32.5162 29.2047 32.1677 27.4571 31.4904 25.8266C30.8131 24.1961 29.8202 22.7146 28.5684 21.4667C27.3165 20.2188 25.8304 19.229 24.1947 18.5538C22.5591 17.8786 20.806 17.5313 19.0357 17.5316ZM19.346 34.1394C18.7179 34.1399 18.1038 33.9547 17.5813 33.6072C17.0589 33.2597 16.6516 32.7655 16.411 32.1872C16.1704 31.6088 16.1073 30.9724 16.2297 30.3583C16.3521 29.7442 16.6545 29.1801 17.0986 28.7374C17.5427 28.2946 18.1086 27.9932 18.7246 27.8712C19.3406 27.7492 19.9791 27.8121 20.5593 28.0519C21.1394 28.2918 21.6352 28.6978 21.9838 29.2186C22.3324 29.7394 22.5181 30.3516 22.5176 30.9777C22.5176 31.8162 22.1835 32.6204 21.5887 33.2133C20.9939 33.8063 20.1871 34.1394 19.346 34.1394Z" fill="url(#paint0_linear)"/>
<path d="M31.486 25.8698C30.8083 24.2395 29.8144 22.7586 28.5615 21.5118L21.4439 28.6072C21.7673 28.8933 22.0286 29.2424 22.2117 29.633C22.3948 30.0235 22.4959 30.4473 22.5087 30.8782C22.5215 31.3091 22.4457 31.7381 22.2861 32.1388C22.1265 32.5394 21.8863 32.9033 21.5804 33.208C21.2745 33.5128 20.9094 33.752 20.5074 33.9108C20.1053 34.0697 19.675 34.145 19.2427 34.132C18.8104 34.1189 18.3854 34.0179 17.9937 33.8352C17.6021 33.6524 17.252 33.3917 16.9652 33.0691L9.49878 40.5148C11.7049 42.7107 14.6062 44.0767 17.7089 44.3802C20.8116 44.6837 23.9239 43.906 26.5162 42.1794C29.1084 40.4528 31.0202 37.884 31.9264 34.9104C32.8325 31.9367 32.6769 28.7419 31.486 25.8698Z" fill="#F47E42"/>
<path d="M30.9588 5.55554C28.2929 5.55663 25.6872 6.34566 23.4711 7.82289C21.255 9.30012 19.5281 11.3992 18.5087 13.8547C17.4892 16.3103 17.2231 19.012 17.7438 21.6183C18.2646 24.2247 19.5489 26.6186 21.4343 28.4973C23.3198 30.3761 25.7217 31.6554 28.3364 32.1734C30.9512 32.6915 33.6613 32.4251 36.1241 31.4078C38.587 30.3906 40.692 28.6682 42.173 26.4585C43.6539 24.2488 44.4444 21.6509 44.4444 18.9934C44.4444 17.2282 44.0955 15.4804 43.4177 13.8497C42.74 12.219 41.7465 10.7374 40.4942 9.48946C39.2419 8.24157 37.7552 7.25186 36.1191 6.57687C34.483 5.90187 32.7295 5.55482 30.9588 5.55554ZM30.6595 22.218C30.0314 22.2186 29.4173 22.0334 28.8948 21.6859C28.3724 21.3384 27.9651 20.8442 27.7245 20.2659C27.4839 19.6875 27.4208 19.051 27.5432 18.4369C27.6656 17.8228 27.968 17.2587 28.4121 16.816C28.8562 16.3733 29.4221 16.0719 30.0381 15.9499C30.6541 15.8279 31.2926 15.8907 31.8728 16.1306C32.4529 16.3704 32.9487 16.7765 33.2973 17.2973C33.6458 17.8181 33.8316 18.4303 33.8311 19.0564C33.8304 19.8947 33.496 20.6984 32.9013 21.2912C32.3067 21.884 31.5004 22.2173 30.6595 22.218Z" fill="url(#paint1_linear)"/>
<path d="M27.4851 19.0563C27.484 18.4069 27.6836 17.773 28.0566 17.2407C28.4296 16.7084 28.958 16.3034 29.57 16.0809C30.182 15.8585 30.8478 15.8292 31.477 15.9972C32.1063 16.1651 32.6683 16.5221 33.0869 17.0197L40.6 9.54113C38.0714 7.01973 34.6415 5.60293 31.065 5.60242C27.4885 5.6019 24.0583 7.01772 21.529 9.53839C18.9997 12.0591 17.5784 15.4781 17.5779 19.0434C17.5774 22.6087 18.9976 26.0282 21.5262 28.5496L28.6164 21.4762C28.2618 21.1798 27.9767 20.8096 27.7812 20.3915C27.5857 19.9734 27.4846 19.5176 27.4851 19.0563Z" fill="#F47E42"/>
<defs>
<linearGradient id="paint0_linear" x1="13.0219" y1="18.5581" x2="24.6686" y2="42.7443" gradientUnits="userSpaceOnUse">
<stop stop-color="#F4854C" stop-opacity="0"/>
<stop offset="0.02" stop-color="#F4844B" stop-opacity="0.1"/>
<stop offset="0.1" stop-color="#F48248" stop-opacity="0.37"/>
<stop offset="0.17" stop-color="#F48146" stop-opacity="0.59"/>
<stop offset="0.23" stop-color="#F48044" stop-opacity="0.77"/>
<stop offset="0.29" stop-color="#F47F43" stop-opacity="0.9"/>
<stop offset="0.34" stop-color="#F47E42" stop-opacity="0.97"/>
<stop offset="0.37" stop-color="#F47E42"/>
</linearGradient>
<linearGradient id="paint1_linear" x1="2997.94" y1="2797.4" x2="2236.17" y2="122.813" gradientUnits="userSpaceOnUse">
<stop stop-color="#F4854C" stop-opacity="0"/>
<stop offset="0.02" stop-color="#F4844B" stop-opacity="0.1"/>
<stop offset="0.1" stop-color="#F48248" stop-opacity="0.37"/>
<stop offset="0.17" stop-color="#F48146" stop-opacity="0.59"/>
<stop offset="0.23" stop-color="#F48044" stop-opacity="0.77"/>
<stop offset="0.29" stop-color="#F47F43" stop-opacity="0.9"/>
<stop offset="0.34" stop-color="#F47E42" stop-opacity="0.97"/>
<stop offset="0.37" stop-color="#F47E42"/>
</linearGradient>
</defs>
</svg>
