<svg width="24" height="24" viewBox="0 0 24 24" fill="none" xmlns="http://www.w3.org/2000/svg">
<path d="M15 16.5C15 16.2239 14.7761 16 14.5 16C14.2239 16 14 16.2239 14 16.5H15ZM7.5 10C7.77614 10 8 9.77614 8 9.5C8 9.22386 7.77614 9 7.5 9V10ZM10.5 4H19.5V3H10.5V4ZM20 4.5V13.5H21V4.5H20ZM19.5 14H10.5V15H19.5V14ZM10 13.5V4.5H9V13.5H10ZM14 16.5V19.5H15V16.5H14ZM13.5 20H4.5V21H13.5V20ZM4 19.5V10.5H3V19.5H4ZM4.5 10H7.5V9H4.5V10ZM4 10.5C4 10.2239 4.22386 10 4.5 10V9C3.67157 9 3 9.67157 3 10.5H4ZM4.5 20C4.22386 20 4 19.7761 4 19.5H3C3 20.3284 3.67157 21 4.5 21V20ZM10.5 14C10.2239 14 10 13.7761 10 13.5H9C9 14.3284 9.67157 15 10.5 15V14ZM20 13.5C20 13.7761 19.7761 14 19.5 14V15C20.3284 15 21 14.3284 21 13.5H20ZM19.5 4C19.7761 4 20 4.22386 20 4.5H21C21 3.67157 20.3284 3 19.5 3V4ZM14 19.5C14 19.7761 13.7761 20 13.5 20V21C14.3284 21 15 20.3284 15 19.5H14ZM10.5 3C9.67157 3 9 3.67157 9 4.5H10C10 4.22386 10.2239 4 10.5 4V3Z" fill="#4A4A4A"/>
</svg>
