<svg width="24" height="24" viewBox="0 0 24 24" fill="none" xmlns="http://www.w3.org/2000/svg">
<path d="M5 2.5C5 2.22386 5.22386 2 5.5 2H18.5C18.7761 2 19 2.22386 19 2.5V7H5V2.5Z" stroke="#4A4A4A"/>
<mask id="path-2-outside-1_998_2389" maskUnits="userSpaceOnUse" x="0.5" y="6.5" width="23" height="14" fill="black">
<rect fill="white" x="0.5" y="6.5" width="23" height="14"/>
<path fill-rule="evenodd" clip-rule="evenodd" d="M2.5 7.5C1.94772 7.5 1.5 7.94772 1.5 8.5V18.5C1.5 19.0523 1.94772 19.5 2.5 19.5H4.5V13C4.5 12.4477 4.94772 12 5.5 12H18.5C19.0523 12 19.5 12.4477 19.5 13V19.5H21.5C22.0523 19.5 22.5 19.0523 22.5 18.5V8.5C22.5 7.94772 22.0523 7.5 21.5 7.5H2.5Z"/>
</mask>
<path d="M4.5 19.5V20.5H5.5V19.5H4.5ZM19.5 19.5H18.5V20.5H19.5V19.5ZM2.5 8.5V8.5V6.5C1.39543 6.5 0.5 7.39543 0.5 8.5H2.5ZM2.5 18.5V8.5H0.5V18.5H2.5ZM2.5 18.5H2.5H0.5C0.5 19.6046 1.39543 20.5 2.5 20.5V18.5ZM4.5 18.5H2.5V20.5H4.5V18.5ZM5.5 19.5V13H3.5V19.5H5.5ZM5.5 13V11C4.39543 11 3.5 11.8954 3.5 13H5.5ZM5.5 13H18.5V11H5.5V13ZM18.5 13H20.5C20.5 11.8954 19.6046 11 18.5 11V13ZM18.5 13V19.5H20.5V13H18.5ZM21.5 18.5H19.5V20.5H21.5V18.5ZM21.5 18.5V20.5C22.6046 20.5 23.5 19.6046 23.5 18.5H21.5ZM21.5 8.5V18.5H23.5V8.5H21.5ZM21.5 8.5H23.5C23.5 7.39543 22.6046 6.5 21.5 6.5V8.5ZM2.5 8.5H21.5V6.5H2.5V8.5Z" fill="#4A4A4A" mask="url(#path-2-outside-1_998_2389)"/>
<rect x="5" y="12.5" width="14" height="9.5" rx="0.5" stroke="#4A4A4A"/>
</svg>
