<svg width="24" height="24" viewBox="0 0 24 24" fill="none" xmlns="http://www.w3.org/2000/svg">
<path fill-rule="evenodd" clip-rule="evenodd" d="M12.5004 4C9.94783 4 7.59075 5.13471 6.00043 7.02169V4.5C6.00043 4.22386 5.77657 4 5.50043 4C5.22429 4 5.00043 4.22386 5.00043 4.5V8.5C5.00043 8.77614 5.22429 9 5.50043 9H9.50043C9.77657 9 10.0004 8.77614 10.0004 8.5C10.0004 8.22386 9.77657 8 9.50043 8H6.4995C7.89837 6.13549 10.1011 5 12.5004 5C16.5911 5 19.9168 8.2749 19.9989 12.3459C19.9999 12.3971 20.0004 12.4485 20.0004 12.5C20.0004 12.7256 20.271 12.9263 20.5253 12.9263C20.7795 12.9263 20.9201 12.8267 21.0004 12.5C21.0087 12.4664 21.0055 12.4324 21.0024 12.3984C21.0009 12.3823 20.9994 12.3663 20.9991 12.3502C20.9192 7.72491 17.1448 4 12.5004 4ZM12.5004 21C15.0531 21 17.4102 19.8653 19.0005 17.9782V20.5C19.0005 20.7761 19.2244 21 19.5005 21C19.7766 21 20.0005 20.7761 20.0005 20.5V16.5C20.0005 16.2239 19.7766 16 19.5005 16H15.5005C15.2244 16 15.0005 16.2239 15.0005 16.5C15.0005 16.7761 15.2244 17 15.5005 17H18.5014C17.1025 18.8645 14.8998 20 12.5004 20C8.42336 20 5.1061 16.7468 5.00292 12.6945C5.00127 12.6299 5.00045 12.565 5.00045 12.5L5.00045 12.4955C5.00053 12.3687 5.00073 12.0437 4.49085 12.0437C3.99458 12.0437 3.9984 12.325 4.00032 12.4662L4.00032 12.4662C4.00049 12.4787 4.00065 12.49 4.00044 12.5C3.99923 12.5601 4.00074 12.62 4.00224 12.6798L4.00295 12.7082C4.11347 17.3064 7.87561 21 12.5004 21Z" fill="#4A4A4A"/>
</svg>
